<?xml version="1.0" standalone="no"?>
<!DOCTYPE svg PUBLIC "-//W3C//DTD SVG 20010904//EN"
 "http://www.w3.org/TR/2001/REC-SVG-20010904/DTD/svg10.dtd">
<svg version="1.0" xmlns="http://www.w3.org/2000/svg"
 width="1024.000000pt" height="1024.000000pt" viewBox="0 0 1024.000000 1024.000000"
 preserveAspectRatio="xMidYMid meet">

<g transform="translate(0.000000,1024.000000) scale(0.100000,-0.100000)"
fill="#000000" stroke="none">
<path d="M0 5120 l0 -5120 5120 0 5120 0 0 5120 0 5120 -5120 0 -5120 0 0
-5120z m7143 3184 c151 -39 258 -124 321 -256 46 -97 139 -415 606 -2068 348
-1230 362 -1283 367 -1402 5 -90 2 -117 -16 -178 -12 -40 -25 -70 -28 -67 -3
3 0 20 6 38 17 48 6 46 -18 -4 -41 -84 -133 -160 -248 -203 -38 -14 -126 -39
-198 -54 -292 -65 -523 -149 -830 -302 -342 -171 -600 -342 -905 -603 -69 -59
-151 -124 -184 -146 -117 -79 -275 -104 -414 -66 -35 9 -143 55 -240 101 -412
196 -734 289 -1232 356 l-135 19 160 -5 c160 -4 205 -7 300 -19 79 -9 108 -14
135 -20 14 -3 42 -8 62 -10 84 -11 401 -100 483 -134 11 -5 41 -18 67 -30 26
-12 50 -21 53 -21 9 0 86 -35 230 -105 186 -90 232 -105 322 -105 117 0 205
47 396 213 120 104 155 134 205 172 35 26 51 44 47 54 -3 9 -3 12 1 9 10 -11
44 11 44 28 0 9 6 14 12 12 7 -3 21 4 32 13 10 10 22 16 26 14 5 -3 10 2 14
10 3 8 13 15 23 15 15 0 16 2 3 10 -12 8 -12 10 -1 10 8 0 27 14 44 32 21 21
28 25 24 12 -5 -14 -1 -12 16 7 26 31 132 90 143 81 4 -4 4 -2 1 4 -3 6 5 17
18 24 14 7 25 18 25 23 0 5 7 4 15 -3 13 -11 14 -10 9 4 -4 10 -1 16 9 16 9 0
22 6 29 13 28 28 344 182 488 237 156 60 315 114 368 125 18 4 30 11 26 16 -3
5 -10 6 -16 3 -6 -4 -8 -2 -5 3 10 16 68 24 83 12 8 -6 22 -8 31 -4 17 7 16 8
-2 15 -19 8 -19 9 2 9 12 1 30 4 40 7 15 5 15 4 3 -5 -9 -7 -10 -11 -3 -11 6
0 14 4 17 9 3 4 25 11 48 15 24 4 55 9 70 11 26 4 96 30 133 49 95 50 173 144
181 217 l5 44 -20 -55 c-31 -86 -91 -125 -156 -101 -17 6 -43 11 -58 11 -21 0
-25 4 -22 21 2 12 16 36 30 55 62 81 70 187 28 357 -14 59 -28 105 -31 102 -3
-2 2 -30 11 -62 27 -98 38 -195 23 -210 -10 -11 -34 29 -28 49 2 10 -1 18 -7
18 -7 0 -9 5 -6 10 3 6 1 10 -5 10 -6 0 -9 8 -6 18 3 9 -5 40 -18 69 -14 28
-22 54 -18 57 3 3 0 6 -6 6 -6 0 -9 7 -5 17 4 10 2 14 -4 10 -6 -4 -13 6 -17
26 -3 17 -7 37 -9 42 -17 56 -32 93 -43 110 -8 11 -14 30 -14 43 0 13 -4 20
-10 17 -5 -3 -7 0 -4 8 3 8 0 18 -5 22 -6 3 -9 11 -6 16 4 5 3 15 -2 22 -4 6
-8 19 -8 27 0 8 -5 14 -12 13 -7 -2 -10 3 -7 10 2 7 -2 30 -11 50 -8 20 -13
37 -10 37 3 0 -1 10 -10 23 -8 13 -12 27 -8 30 3 4 0 7 -7 7 -7 0 -11 3 -7 6
3 4 -1 20 -9 37 -9 16 -17 41 -19 54 -1 13 -10 32 -19 42 -12 13 -14 21 -6 26
7 4 3 13 -11 26 -14 12 -17 19 -9 19 11 0 11 3 2 12 -7 7 -12 22 -12 35 0 13
-6 23 -12 23 -8 0 -14 14 -15 33 -1 17 -11 52 -22 77 -11 24 -17 48 -15 52 3
4 0 8 -5 8 -6 0 -10 3 -10 8 3 19 -2 43 -8 39 -5 -3 -9 5 -9 16 -1 12 -4 29
-6 37 -3 8 -8 32 -12 52 -5 21 -12 35 -17 32 -5 -3 -9 4 -9 16 0 11 -7 23 -15
26 -11 5 -13 10 -5 19 8 9 8 15 0 20 -5 3 -10 15 -10 26 0 11 -4 18 -9 14 -6
-3 -8 4 -6 15 2 11 0 20 -6 20 -5 0 -9 11 -9 25 0 13 -6 30 -13 37 -8 7 -12
20 -9 30 2 10 -2 20 -11 24 -9 3 -13 13 -10 25 3 11 0 19 -7 19 -10 0 -10 3 0
15 10 12 10 15 -4 15 -9 0 -15 3 -15 8 4 24 -3 53 -17 66 -12 12 -12 16 -2 16
10 0 10 2 -1 9 -8 5 -11 16 -8 26 4 9 3 14 -3 10 -6 -3 -10 5 -10 19 0 39 0
40 -15 49 -8 4 -11 15 -8 24 5 12 3 14 -7 8 -9 -6 -11 -4 -5 5 4 7 2 16 -5 20
-7 4 -12 19 -12 34 0 14 -6 26 -12 26 -7 0 -7 3 1 8 9 6 6 16 -12 36 -28 33
-33 45 -10 26 13 -11 14 -10 9 4 -3 9 -10 16 -16 16 -5 0 -6 5 -3 10 3 6 1 10
-5 10 -6 0 -9 4 -6 9 3 5 -1 11 -9 15 -8 3 -12 12 -9 21 3 8 1 15 -5 15 -6 0
-11 9 -11 19 0 11 -4 23 -10 26 -5 3 -10 15 -10 26 0 10 -5 19 -11 19 -5 0 -7
5 -4 10 3 6 -1 10 -10 10 -13 0 -16 6 -11 24 4 16 -1 32 -15 50 -11 14 -17 26
-13 26 5 0 3 5 -3 11 -6 6 -9 18 -6 25 3 8 0 14 -6 14 -10 0 -33 16 -65 45
-34 32 -110 75 -173 98 -76 28 -194 37 -258 22 -38 -10 -122 -51 -130 -65 -9
-14 -3 -13 67 11 67 22 212 28 258 11 14 -5 27 -10 30 -10 3 -1 21 -8 40 -16
56 -23 113 -79 145 -142 27 -52 30 -69 30 -149 0 -81 -3 -95 -29 -142 -32 -58
-73 -103 -60 -67 6 18 6 18 -9 -1 -19 -23 -22 -39 -5 -29 7 4 8 3 4 -5 -4 -6
-11 -9 -16 -6 -5 3 -44 -57 -87 -132 -257 -447 -1047 -1770 -1190 -1991 -103
-161 -201 -227 -333 -227 -60 0 -86 5 -130 26 -87 41 -1337 970 -1397 1038
-130 146 -77 399 100 486 69 33 133 41 208 25 78 -17 119 -42 384 -240 455
-339 527 -391 532 -387 2 3 -16 20 -41 38 -25 18 -46 37 -46 42 0 5 8 3 17 -4
56 -46 82 -73 77 -80 -7 -13 96 -76 144 -89 52 -13 99 -2 149 36 42 32 116
142 108 162 -2 7 -1 10 5 7 12 -7 33 32 24 47 -4 7 -3 8 4 4 14 -8 36 30 26
46 -4 6 -3 8 4 4 14 -8 86 110 76 125 -4 7 -3 9 4 5 13 -8 86 109 77 124 -4 6
-1 9 6 8 6 -2 14 3 17 11 3 9 0 11 -8 6 -9 -5 -11 -4 -6 4 4 6 11 9 16 6 12
-7 103 143 94 156 -4 7 -3 9 3 6 6 -4 27 20 47 52 37 61 43 77 26 66 -6 -3 -7
1 -3 10 4 12 8 13 13 5 5 -8 15 0 29 23 26 42 27 54 4 36 -16 -13 -17 -12 -4
3 7 10 17 16 21 13 5 -3 18 10 29 29 24 37 27 51 9 40 -7 -4 -8 -3 -4 5 4 6
11 9 16 6 11 -7 42 43 34 57 -4 7 -3 8 4 4 14 -8 36 30 26 46 -4 7 -3 8 4 4
13 -8 36 30 27 44 -4 6 -1 9 7 8 7 -2 12 5 12 14 -1 10 2 16 6 13 7 -4 200
296 200 311 0 3 -5 2 -12 -2 -7 -4 -8 -3 -4 5 4 6 11 9 16 6 5 -3 14 3 19 14
16 29 13 39 -4 17 -8 -11 -15 -15 -15 -9 0 13 25 35 32 27 10 -9 98 145 92
160 -3 8 -1 17 5 21 7 3 8 0 5 -9 -12 -32 5 -15 35 34 34 54 37 65 19 54 -7
-4 -8 -3 -4 5 4 6 11 9 16 6 12 -7 33 22 24 36 -4 7 -3 9 3 6 5 -4 22 6 37 22
15 15 49 38 76 51 28 13 48 25 46 27 -7 7 -90 -36 -120 -62 -16 -14 -31 -25
-34 -25 -13 0 42 49 74 66 41 22 44 34 7 34 -77 0 -195 -89 -280 -209 -26 -36
-49 -68 -53 -71 -3 -3 -30 -43 -60 -90 -68 -105 -120 -175 -120 -161 0 11 69
143 79 151 3 3 17 25 30 50 31 56 115 190 133 210 8 9 27 37 43 62 17 26 36
47 43 48 6 0 12 3 12 8 0 4 17 18 38 32 20 14 39 27 42 30 13 13 80 44 130 59
72 22 155 18 220 -11 46 -20 75 -30 75 -26 0 6 70 -47 78 -59 5 -7 13 -11 18
-7 6 3 13 -3 16 -14 2 -11 16 -25 29 -32 13 -8 24 -18 24 -24 0 -6 4 -4 9 3 6
9 6 22 1 32 -5 9 -6 20 -2 24 4 5 -2 5 -13 1 -11 -4 -16 -4 -12 0 4 4 0 19
-10 33 -15 24 -15 25 0 12 10 -8 17 -9 17 -3 0 6 -4 13 -9 17 -6 3 -8 14 -6
25 2 13 -2 20 -11 20 -8 0 -12 5 -9 10 3 6 3 10 -2 10 -4 0 -8 11 -8 25 0 18
4 24 15 20 9 -3 7 1 -4 10 -11 8 -24 15 -29 15 -4 0 -5 5 -2 11 4 6 -1 17 -11
24 -18 13 -17 14 6 8 24 -6 24 -5 -5 18 -16 13 -34 23 -39 21 -5 -2 -3 4 4 13
19 23 22 48 7 57 -18 11 -29 10 -21 -4 4 -7 3 -8 -4 -4 -6 4 -8 14 -5 23 4 10
-3 23 -18 35 -13 10 -19 18 -14 17 22 -3 26 2 11 16 -8 9 -12 23 -9 32 5 13 2
15 -16 10 -17 -4 -21 -2 -17 8 3 10 0 12 -11 8 -11 -4 -14 -2 -9 5 4 7 -1 10
-14 7 -11 -2 -19 -1 -19 3 1 4 -2 17 -6 30 -6 17 -13 22 -26 19 -14 -4 -19 0
-19 16 0 18 -2 19 -10 7 -8 -13 -11 -13 -19 -1 -5 7 -13 11 -19 7 -6 -3 -13 0
-16 6 -5 10 -7 10 -12 1 -4 -10 -11 -10 -25 -2 -11 5 -17 14 -15 18 3 4 -1 8
-9 8 -8 0 -11 -5 -8 -10 4 -6 -4 -7 -21 -3 -18 4 -25 3 -21 -3 3 -7 0 -8 -9
-5 -9 3 -16 14 -16 23 0 9 -3 12 -8 6 -4 -5 -15 -11 -24 -13 -13 -2 -16 2 -11
15 5 15 4 16 -8 6 -8 -6 -43 -12 -79 -12 -97 -1 -100 -1 -100 -12 0 -5 -5 -9
-11 -9 -6 0 -9 6 -6 13 6 16 -37 17 -50 3 -4 -5 -2 -6 5 -2 6 4 12 3 12 -1 0
-5 -27 -9 -60 -9 -38 -1 -57 2 -53 9 3 6 1 7 -5 3 -6 -4 -24 -9 -39 -11 -16
-3 -47 -8 -71 -11 -29 -5 -39 -10 -30 -15 7 -5 -3 -6 -25 -2 -29 4 -43 1 -59
-13 -12 -11 -18 -13 -14 -7 9 16 -25 5 -36 -11 -5 -8 -8 -7 -8 1 0 6 -15 11
-36 10 -33 -1 -34 -2 -17 -15 17 -13 17 -14 -4 -7 -16 4 -23 2 -23 -6 0 -10
-3 -10 -12 -1 -8 8 -15 9 -25 1 -7 -7 -13 -8 -13 -4 0 4 -8 1 -17 -6 -15 -12
-16 -12 -10 6 6 17 5 18 -5 5 -8 -9 -30 -15 -59 -15 -41 0 -45 -2 -41 -20 3
-11 1 -17 -3 -13 -5 4 -14 3 -22 -4 -11 -8 -12 -7 -8 5 4 8 2 18 -4 22 -6 3
-9 0 -5 -8 7 -19 -22 -40 -47 -34 -12 3 -22 0 -26 -9 -7 -20 -23 -7 -23 19 0
15 -3 18 -8 10 -7 -10 -12 -10 -27 1 -18 13 -18 14 6 26 22 12 23 12 10 -4
-12 -15 -12 -16 5 -10 10 4 24 11 30 15 6 5 14 7 17 4 4 -3 5 -2 2 2 -3 3 3
12 13 20 16 13 15 14 -6 10 -12 -3 -20 -1 -16 4 3 5 11 9 19 9 8 0 21 10 29
22 15 21 16 21 17 3 1 -19 2 -19 6 -1 4 15 7 16 14 5 7 -11 9 -9 9 8 0 16 4
21 15 17 9 -4 15 0 15 7 0 12 2 12 9 0 7 -10 14 -6 32 18 16 23 26 28 35 20 9
-8 16 -4 24 12 10 17 14 19 21 8 8 -13 10 -11 8 7 0 10 82 47 110 50 13 2 53
15 88 29 35 14 69 22 75 19 6 -4 8 -3 5 3 -6 10 37 29 56 25 4 -1 7 3 7 9 0 6
7 9 15 6 8 -4 17 -2 20 3 3 4 24 11 48 15 23 4 63 16 90 26 26 10 47 17 47 15
0 -3 15 0 33 5 17 6 70 19 117 29 47 10 72 18 55 19 -16 0 -61 -6 -100 -14
-38 -9 -83 -18 -98 -20 -15 -3 -87 -21 -160 -39 -504 -130 -990 -376 -1278
-647 -26 -24 -86 -90 -133 -146 -91 -107 -113 -120 -140 -82 -21 30 -8 58 74
154 167 197 337 325 626 472 281 143 550 245 864 327 134 35 361 79 473 91 32
4 56 9 52 13 -20 20 -348 -27 -542 -78 -62 -17 -116 -30 -120 -29 -33 2 217
67 384 100 212 41 391 46 516 13z m-1203 -214 c-8 -5 -19 -10 -25 -10 -5 0 -3
5 5 10 8 5 20 10 25 10 6 0 3 -5 -5 -10z m710 -234 c0 -2 -7 -6 -15 -10 -8 -3
-15 -1 -15 4 0 6 7 10 15 10 8 0 15 -2 15 -4z m-761 -109 c8 -10 7 -14 -4 -14
-8 0 -15 6 -15 14 0 7 2 13 4 13 2 0 9 -6 15 -13z m-2947 -17 c425 -21 697
-60 1043 -149 224 -59 550 -184 604 -234 14 -13 39 -32 56 -42 38 -23 105 -85
105 -97 0 -4 -24 11 -53 35 -73 59 -155 108 -263 155 -119 53 -354 136 -426
152 -32 7 -55 17 -52 21 3 5 -2 6 -10 3 -8 -3 -39 1 -68 9 -29 8 -82 20 -118
27 -36 6 -72 14 -80 17 -22 8 -52 14 -77 13 -13 0 -23 4 -23 9 0 4 -12 8 -27
8 -42 1 -73 4 -133 15 -30 6 -77 12 -105 14 -76 5 -137 12 -165 19 -14 3 -149
8 -300 11 -324 7 -431 -4 -551 -58 -129 -57 -198 -103 -204 -135 -1 -10 -7
-17 -13 -16 -5 1 -16 -4 -22 -13 -11 -12 -10 -13 6 -7 16 6 15 3 -5 -25 -39
-56 -61 -134 -59 -214 l1 -73 7 90 c5 68 13 102 32 140 32 62 63 95 88 95 30
0 34 -38 15 -126 -21 -90 -16 -181 15 -289 20 -72 20 -60 -6 80 -18 101 -18
127 1 200 29 108 118 219 212 262 103 48 189 56 523 50 317 -5 460 -18 726
-62 382 -64 784 -195 977 -318 62 -40 147 -114 147 -129 0 -7 -19 -38 -83
-131 -6 -9 -17 -15 -24 -12 -7 2 -13 -3 -13 -11 0 -8 -5 -12 -11 -9 -6 4 -26
7 -45 7 -19 0 -34 4 -34 10 0 5 -4 6 -10 3 -5 -3 -10 -1 -10 6 0 7 -3 9 -6 6
-4 -3 -16 -1 -28 5 -11 7 -25 13 -31 13 -5 1 -9 6 -8 13 2 6 -4 9 -12 6 -9 -4
-22 -1 -30 6 -8 6 -20 8 -26 4 -8 -4 -9 -3 -5 4 4 7 1 12 -8 12 -10 0 -13 6
-9 16 5 14 2 14 -23 -2 -15 -11 -25 -14 -21 -7 8 13 -26 37 -36 26 -3 -3 -13
2 -22 11 -9 9 -28 16 -41 16 -14 0 -23 4 -20 8 5 8 -2 10 -41 13 -10 1 -26 8
-35 16 -9 8 -21 12 -27 9 -5 -4 -13 -1 -16 5 -4 5 -13 8 -21 5 -8 -3 -14 -1
-14 5 0 6 -5 7 -10 4 -6 -3 -13 1 -16 10 -6 13 -9 14 -16 3 -7 -10 -10 -10
-19 5 -5 9 -17 17 -24 17 -8 0 -16 8 -16 18 -1 16 -2 16 -6 0 -5 -21 -14 -23
-31 -6 -6 6 -21 12 -34 12 -13 1 -34 12 -46 24 -22 22 -49 31 -37 12 10 -16
-3 -12 -33 10 -15 10 -43 21 -62 24 -19 2 -35 5 -35 6 0 3 -39 10 -68 13 -18
1 -25 7 -22 15 4 10 -4 13 -28 11 -18 -2 -39 1 -46 5 -10 7 -12 5 -6 -4 6 -9
4 -11 -4 -6 -7 5 -10 15 -6 24 3 9 3 13 -1 9 -4 -4 -17 1 -28 10 -12 10 -15
11 -8 3 16 -19 15 -30 -3 -30 -8 0 -15 7 -15 15 0 8 -5 15 -11 15 -5 0 -8 -4
-4 -9 3 -5 0 -13 -6 -17 -8 -4 -9 -3 -5 4 4 7 2 12 -5 12 -8 0 -8 5 2 18 12
15 11 15 -8 -1 -11 -10 -23 -15 -25 -10 -14 24 -16 43 -6 49 7 4 8 3 4 -4 -5
-8 1 -12 14 -12 16 0 20 4 16 16 -4 12 -2 15 9 10 8 -3 15 0 15 7 0 8 3 8 9
-2 5 -7 14 -10 20 -7 6 4 11 1 12 -6 0 -9 2 -9 5 -2 3 7 14 9 26 6 16 -4 19
-2 13 9 -7 11 -6 12 6 3 20 -15 82 -18 73 -3 -3 6 4 4 17 -4 14 -8 41 -13 64
-11 22 1 45 -2 52 -8 7 -5 17 -7 22 -3 6 3 20 1 31 -5 11 -6 20 -7 20 -2 0 11
-110 48 -175 58 -11 2 -49 8 -85 14 -36 6 -78 13 -93 15 -16 2 -40 6 -55 9
-64 14 -417 36 -567 36 -244 0 -366 -30 -463 -115 -65 -57 -84 -116 -82 -259
1 -104 8 -166 20 -181 5 -7 7 -15 4 -18 -4 -4 -2 -19 4 -34 6 -15 13 -44 16
-63 2 -19 11 -64 19 -100 9 -36 18 -82 21 -104 4 -21 8 -42 11 -46 3 -4 7 -29
10 -55 4 -27 10 -56 15 -66 5 -9 12 -33 14 -53 2 -19 7 -39 10 -44 3 -5 12
-47 20 -93 8 -46 20 -106 26 -134 6 -27 13 -61 15 -75 2 -14 6 -40 9 -57 3
-18 8 -45 10 -60 2 -16 11 -57 19 -93 9 -36 27 -126 41 -200 35 -181 33 -175
51 -260 9 -41 18 -86 20 -100 9 -59 29 -155 34 -160 4 -3 7 -18 7 -35 3 -48
12 -103 20 -117 5 -10 4 -10 -6 -1 -7 6 -16 29 -20 50 -14 67 -37 165 -59 248
-19 72 -174 705 -187 764 -3 13 -7 21 -10 18 -4 -4 5 -47 66 -307 57 -240 280
-1204 296 -1275 60 -274 147 -623 168 -674 14 -35 41 -85 61 -112 41 -57 42
-65 14 -74 -39 -13 -106 23 -153 80 -56 70 -75 131 -176 575 -139 611 -214
932 -217 923 -2 -5 28 -146 66 -314 38 -167 106 -467 151 -667 45 -200 89
-386 99 -415 23 -67 66 -153 98 -194 29 -40 19 -43 -20 -5 l-29 27 7 -28 c11
-40 -13 -27 -52 31 -42 60 -73 155 -107 317 -58 279 -220 1004 -331 1480 -64
275 -127 550 -141 610 -14 61 -75 326 -136 590 -108 472 -110 481 -99 545 5
35 9 66 6 68 -5 5 -25 -68 -25 -95 0 -12 -6 -23 -12 -26 -10 -3 -9 -8 2 -22 8
-10 10 -16 5 -13 -7 4 -10 -6 -10 -27 1 -19 -2 -32 -6 -30 -10 7 -20 -25 -12
-38 3 -7 2 -9 -2 -4 -9 7 -39 -38 -70 -103 -9 -19 -23 -47 -31 -61 -7 -14 -11
-29 -7 -33 3 -3 1 -6 -5 -6 -7 0 -12 -8 -12 -18 0 -10 -6 -24 -12 -31 -17 -16
-16 -251 1 -306 7 -22 14 -58 17 -79 3 -22 10 -48 15 -57 5 -10 10 -29 11 -43
1 -15 5 -26 8 -26 3 0 6 -8 6 -17 1 -15 33 -162 50 -228 5 -18 7 -31 16 -100
2 -11 7 -23 11 -26 4 -3 10 -19 12 -35 3 -16 8 -40 11 -54 7 -28 10 -48 18
-104 4 -21 8 -42 11 -46 5 -8 14 -59 17 -90 0 -8 4 -17 8 -20 4 -3 10 -26 13
-52 3 -26 9 -55 14 -65 4 -10 8 -29 8 -43 -1 -14 2 -27 5 -30 3 -3 11 -32 19
-65 7 -33 17 -80 23 -105 5 -25 12 -58 14 -75 3 -16 8 -37 11 -45 3 -8 7 -24
9 -35 2 -11 6 -32 9 -47 3 -16 7 -38 9 -50 3 -13 7 -40 9 -60 3 -20 8 -46 12
-57 9 -30 25 -120 30 -174 2 -26 7 -53 12 -60 4 -6 8 -18 8 -27 1 -8 6 -35 10
-60 5 -25 9 -49 10 -55 1 -5 3 -14 5 -20 1 -5 1 -20 0 -33 -1 -13 3 -28 8 -35
6 -7 10 -23 10 -37 0 -29 8 -82 18 -125 4 -16 8 -44 8 -62 1 -17 4 -29 9 -26
6 4 9 -14 10 -74 1 -13 4 -23 8 -23 4 0 5 -9 2 -20 -3 -11 -2 -28 3 -37 4 -10
9 -25 10 -33 1 -8 9 -46 17 -85 9 -38 38 -179 66 -313 28 -134 57 -270 65
-302 18 -68 81 -200 97 -200 6 0 7 5 2 13 -12 19 -12 38 -1 35 6 -2 20 -20 30
-39 18 -34 18 -34 -2 -37 -18 -3 -15 -10 27 -53 27 -27 52 -49 56 -49 5 0 28
-13 51 -29 50 -34 139 -67 221 -79 31 -5 202 -8 378 -7 247 1 361 -2 490 -16
93 -9 179 -20 191 -23 13 -3 41 -8 62 -11 56 -9 305 -64 315 -71 5 -3 22 -8
37 -10 58 -10 365 -122 477 -173 201 -93 225 -105 221 -109 -5 -4 -137 45
-211 78 -22 10 -65 28 -95 40 -30 12 -68 28 -85 35 -16 7 -55 20 -85 30 -30
10 -72 24 -94 32 -21 8 -41 12 -43 9 -3 -2 -23 2 -46 10 -22 8 -54 17 -71 20
-17 2 -39 7 -49 10 -11 3 -30 7 -43 9 -19 2 -22 0 -13 -11 9 -11 8 -14 -4 -14
-12 0 -33 -29 -25 -35 2 -1 62 -19 133 -39 72 -21 137 -42 145 -48 12 -7 10
-8 -5 -3 -209 67 -472 126 -695 156 -138 18 -224 23 -685 34 -228 5 -305 19
-426 81 -139 69 -255 215 -307 384 -11 36 -49 198 -86 360 -64 287 -210 931
-402 1785 -278 1232 -268 1183 -268 1340 0 161 23 227 154 455 204 352 273
436 425 511 101 49 216 78 347 87 57 4 120 9 140 10 20 2 132 -2 250 -8z
m2725 -26 c2 -5 -8 -9 -21 -9 -19 0 -22 3 -14 13 12 14 30 12 35 -4z m-2344
-247 c-3 -5 -9 -3 -14 4 -4 7 -5 17 -2 22 3 5 9 3 14 -4 4 -7 5 -17 2 -22z
m3307 -406 c-10 -20 -30 -37 -30 -27 0 6 33 46 38 46 1 0 -2 -9 -8 -19z m-75
-118 c-44 -68 -65 -97 -65 -90 0 12 69 117 76 117 3 0 -2 -12 -11 -27z m700
-147 c-18 -67 -85 -198 -196 -389 -40 -67 -101 -172 -138 -234 -36 -62 -67
-111 -69 -109 -5 5 64 134 158 296 117 202 239 445 247 493 4 24 9 34 11 23 2
-10 -4 -46 -13 -80z m-835 -70 c0 -3 -4 -8 -10 -11 -5 -3 -10 -1 -10 4 0 6 5
11 10 11 6 0 10 -2 10 -4z m-170 -20 c0 -8 -6 -21 -13 -28 -8 -7 -19 -24 -26
-37 -7 -12 -15 -21 -17 -18 -4 4 47 96 54 97 1 0 2 -6 2 -14z m136 -33 c-8
-16 -22 -37 -31 -48 -16 -19 -17 -19 -3 5 8 14 20 35 27 48 6 12 14 22 17 22
2 0 -2 -12 -10 -27z m-56 -94 c-7 -11 -14 -18 -17 -15 -3 3 0 12 7 21 18 21
23 19 10 -6z m-37 -54 c-3 -9 -8 -14 -10 -11 -3 3 -2 9 2 15 9 16 15 13 8 -4z
m-1918 -569 c14 -9 25 -14 25 -12 0 17 138 -69 196 -122 11 -11 32 -25 45 -32
13 -7 29 -18 35 -24 6 -6 31 -27 54 -45 23 -19 48 -40 54 -46 6 -7 22 -17 34
-24 13 -7 33 -20 44 -29 11 -9 28 -24 38 -32 9 -8 32 -26 50 -40 19 -14 51
-42 72 -62 21 -21 43 -38 49 -38 14 0 43 -30 36 -37 -6 -5 -122 79 -517 372
-189 141 -253 174 -352 185 l-73 9 93 -4 c64 -2 100 -8 117 -19z m-478 -321
c0 -87 -12 -101 -15 -19 -2 51 4 94 13 94 1 0 2 -34 2 -75z m-83 -72 c7 -56
52 -155 90 -200 34 -40 26 -42 -20 -5 -77 60 -128 175 -105 235 15 38 27 27
35 -30z m105 -57 c1 -5 -5 -3 -13 4 -8 6 -12 19 -9 27 6 14 8 14 14 -3 4 -10
8 -23 8 -28z m4131 -1192 c0 -12 -73 -34 -194 -59 -374 -77 -816 -263 -1200
-505 -101 -64 -117 -71 -95 -42 13 15 12 16 -3 3 -10 -7 -16 -16 -13 -20 2 -4
-44 -42 -104 -84 -59 -41 -179 -136 -267 -209 -178 -149 -227 -188 -239 -188
-4 0 8 13 26 30 19 16 39 30 44 30 6 0 24 13 40 30 37 37 121 108 158 135 16
11 29 28 31 37 1 10 6 21 11 25 4 4 5 2 1 -4 -10 -18 9 -16 24 2 7 8 9 15 4
15 -4 0 3 11 16 25 12 13 25 24 29 23 3 0 9 1 14 2 4 1 10 3 15 5 25 7 41 18
36 26 -3 5 0 8 7 7 7 -2 14 3 15 10 3 26 5 27 14 12 8 -13 10 -12 10 4 0 11 3
16 6 13 10 -9 46 12 39 23 -3 6 1 7 10 4 10 -4 15 -2 13 7 -2 9 4 13 16 11 10
-2 15 1 12 6 -6 9 77 68 98 70 5 0 12 5 15 11 12 19 176 111 189 106 7 -3 11
-1 8 4 -6 9 144 95 239 136 33 15 85 38 115 52 262 120 684 250 818 252 23 1
42 -1 42 -5z m-260 -134 c0 -5 -10 -10 -22 -10 -13 0 -34 -3 -48 -5 -16 -3
-12 0 10 9 42 18 60 19 60 6z m-180 -50 c-8 -5 -19 -10 -25 -10 -5 0 -3 5 5
10 8 5 20 10 25 10 6 0 3 -5 -5 -10z m-43 -16 c-3 -3 -12 -4 -19 -1 -8 3 -5 6
6 6 11 1 17 -2 13 -5z m-42 -13 c-12 -10 -65 -24 -65 -16 0 2 15 9 33 14 43
12 42 12 32 2z m443 -383 c-2 -35 -71 -122 -146 -183 -97 -81 -237 -146 -432
-200 -347 -98 -540 -170 -779 -290 -72 -36 -131 -63 -131 -60 0 2 14 12 30 20
17 9 28 20 25 25 -3 6 1 7 9 4 11 -4 16 0 16 12 1 21 78 84 103 84 10 0 17 4
17 8 0 9 47 35 65 37 12 1 58 25 65 34 3 4 18 12 34 19 16 7 26 15 23 18 -2 3
-24 -4 -48 -14 -54 -25 -99 -35 -99 -24 0 15 189 98 334 147 76 25 204 59 285
75 236 48 286 60 368 91 120 46 209 104 235 152 8 16 2 14 -29 -11 -44 -35
-83 -52 -116 -52 -19 0 -19 2 -7 14 20 19 163 116 172 116 4 0 6 -10 6 -22z
m-2445 -434 c150 -66 194 -94 125 -79 -31 7 -119 50 -253 123 -81 45 -58 37
128 -44z m-35 -114 c3 0 3 -2 0 -5 -5 -6 -78 22 -78 30 0 3 16 -2 36 -10 20
-8 39 -15 42 -15z m982 -195 c0 -2 -13 -11 -30 -20 -38 -19 -40 -11 -2 9 31
17 32 18 32 11z m-1890 -455 c8 -5 11 -10 5 -10 -5 0 -17 5 -25 10 -8 5 -10
10 -5 10 6 0 17 -5 25 -10z"/>
<path d="M5755 7789 c-4 -6 -5 -12 -2 -15 2 -3 7 2 10 11 7 17 1 20 -8 4z"/>
<path d="M5695 7739 c-4 -6 -5 -12 -2 -15 2 -3 7 2 10 11 7 17 1 20 -8 4z"/>
<path d="M7855 4180 c-19 -8 -19 -9 3 -9 12 -1 22 4 22 9 0 6 -1 10 -2 9 -2 0
-12 -4 -23 -9z"/>
<path d="M3400 7470 c0 -5 5 -10 11 -10 5 0 7 5 4 10 -3 6 -8 10 -11 10 -2 0
-4 -4 -4 -10z"/>
<path d="M2012 7145 c0 -16 2 -22 5 -12 2 9 2 23 0 30 -3 6 -5 -1 -5 -18z"/>
<path d="M2021 7094 c0 -11 3 -14 6 -6 3 7 2 16 -1 19 -3 4 -6 -2 -5 -13z"/>
<path d="M2032 7050 c0 -14 2 -19 5 -12 2 6 2 18 0 25 -3 6 -5 1 -5 -13z"/>
<path d="M2041 7004 c0 -11 3 -14 6 -6 3 7 2 16 -1 19 -3 4 -6 -2 -5 -13z"/>
<path d="M2180 7002 c0 -24 52 -233 57 -228 3 2 -7 56 -22 118 -25 106 -35
137 -35 110z"/>
<path d="M2051 6964 c0 -11 3 -14 6 -6 3 7 2 16 -1 19 -3 4 -6 -2 -5 -13z"/>
<path d="M2061 6924 c0 -11 3 -14 6 -6 3 7 2 16 -1 19 -3 4 -6 -2 -5 -13z"/>
<path d="M2072 6885 c0 -11 4 -31 8 -45 6 -20 8 -21 8 -5 0 11 -4 31 -8 45 -6
20 -8 21 -8 5z"/>
<path d="M2091 6794 c0 -11 3 -14 6 -6 3 7 2 16 -1 19 -3 4 -6 -2 -5 -13z"/>
<path d="M2101 6754 c0 -11 3 -14 6 -6 3 7 2 16 -1 19 -3 4 -6 -2 -5 -13z"/>
<path d="M2242 6740 c0 -14 3 -34 8 -45 l9 -20 -1 20 c0 11 -4 31 -8 45 l-8
25 0 -25z"/>
<path d="M2121 6664 c0 -11 3 -14 6 -6 3 7 2 16 -1 19 -3 4 -6 -2 -5 -13z"/>
<path d="M2261 6654 c0 -11 3 -14 6 -6 3 7 2 16 -1 19 -3 4 -6 -2 -5 -13z"/>
<path d="M2131 6624 c0 -11 3 -14 6 -6 3 7 2 16 -1 19 -3 4 -6 -2 -5 -13z"/>
<path d="M2270 6619 c1 -20 48 -197 49 -182 1 14 -39 186 -45 192 -2 2 -4 -2
-4 -10z"/>
<path d="M2141 6574 c0 -11 3 -14 6 -6 3 7 2 16 -1 19 -3 4 -6 -2 -5 -13z"/>
<path d="M2151 6534 c0 -11 3 -14 6 -6 3 7 2 16 -1 19 -3 4 -6 -2 -5 -13z"/>
<path d="M2161 6494 c0 -11 3 -14 6 -6 3 7 2 16 -1 19 -3 4 -6 -2 -5 -13z"/>
<path d="M2322 6405 c0 -11 3 -29 8 -40 11 -25 11 1 0 35 -6 20 -8 21 -8 5z"/>
<path d="M2351 6274 c0 -11 3 -14 6 -6 3 7 2 16 -1 19 -3 4 -6 -2 -5 -13z"/>
<path d="M2221 6234 c0 -11 3 -14 6 -6 3 7 2 16 -1 19 -3 4 -6 -2 -5 -13z"/>
<path d="M2362 6235 c0 -11 4 -31 8 -45 l8 -25 0 25 c0 14 -3 34 -8 45 l-9 20
1 -20z"/>
<path d="M2241 6144 c0 -11 3 -14 6 -6 3 7 2 16 -1 19 -3 4 -6 -2 -5 -13z"/>
<path d="M2271 6014 c0 -11 3 -14 6 -6 3 7 2 16 -1 19 -3 4 -6 -2 -5 -13z"/>
<path d="M2281 5974 c0 -11 3 -14 6 -6 3 7 2 16 -1 19 -3 4 -6 -2 -5 -13z"/>
<path d="M2311 5844 c0 -11 3 -14 6 -6 3 7 2 16 -1 19 -3 4 -6 -2 -5 -13z"/>
<path d="M2321 5804 c0 -11 3 -14 6 -6 3 7 2 16 -1 19 -3 4 -6 -2 -5 -13z"/>
<path d="M2331 5754 c0 -11 3 -14 6 -6 3 7 2 16 -1 19 -3 4 -6 -2 -5 -13z"/>
<path d="M2341 5714 c0 -11 3 -14 6 -6 3 7 2 16 -1 19 -3 4 -6 -2 -5 -13z"/>
<path d="M2351 5674 c0 -11 3 -14 6 -6 3 7 2 16 -1 19 -3 4 -6 -2 -5 -13z"/>
<path d="M2371 5584 c0 -11 3 -14 6 -6 3 7 2 16 -1 19 -3 4 -6 -2 -5 -13z"/>
<path d="M2381 5544 c0 -11 3 -14 6 -6 3 7 2 16 -1 19 -3 4 -6 -2 -5 -13z"/>
<path d="M2401 5454 c0 -11 3 -14 6 -6 3 7 2 16 -1 19 -3 4 -6 -2 -5 -13z"/>
<path d="M2411 5414 c0 -11 3 -14 6 -6 3 7 2 16 -1 19 -3 4 -6 -2 -5 -13z"/>
<path d="M2422 5375 c0 -11 4 -31 8 -45 6 -20 8 -21 8 -5 0 11 -4 31 -8 45 -6
20 -8 21 -8 5z"/>
<path d="M3648 2723 c7 -3 16 -2 19 1 4 3 -2 6 -13 5 -11 0 -14 -3 -6 -6z"/>
<path d="M4100 2711 c16 -11 17 -11 -30 -34 l-35 -18 35 6 c47 7 67 43 29 53
-12 3 -12 2 1 -7z"/>
<path d="M4146 2703 c-6 -14 -5 -15 5 -6 7 7 10 15 7 18 -3 3 -9 -2 -12 -12z"/>
<path d="M4163 2676 c-6 -8 -9 -17 -6 -20 4 -3 1 -6 -5 -6 -7 0 -12 8 -12 18
0 10 -3 13 -8 6 -4 -6 -14 -13 -22 -16 -8 -3 9 -10 39 -17 39 -8 58 -8 65 -1
14 14 -11 31 -33 22 -14 -5 -14 -3 -2 11 16 20 1 22 -16 3z"/>
<path d="M4008 2673 c7 -3 16 -2 19 1 4 3 -2 6 -13 5 -11 0 -14 -3 -6 -6z"/>
<path d="M6295 3520 c-16 -17 -16 -20 -3 -15 9 4 19 13 22 21 7 19 2 18 -19
-6z"/>
</g>
</svg>
